<?xml version="1.0" encoding="utf-8"?>
<!-- Generator: Adobe Illustrator 21.1.0, SVG Export Plug-In . SVG Version: 6.00 Build 0)  -->
<svg version="1.1" id="Layer_1" xmlns="http://www.w3.org/2000/svg" xmlns:xlink="http://www.w3.org/1999/xlink" x="0px" y="0px"
	 viewBox="0 0 202 202" style="enable-background:new 0 0 202 202;" xml:space="preserve">
<style type="text/css">
	.st0{fill:#773D94;}
	.st1{fill:#FFFFFF;}
	.st2{fill:none;stroke:#FFFFFF;stroke-width:4;stroke-miterlimit:10;}
</style>
<path class="st0" d="M192,202H10c-5.5,0-10-4.5-10-10V10C0,4.5,4.5,0,10,0h182c5.5,0,10,4.5,10,10v182C202,197.5,197.5,202,192,202z
	"/>
<polygon class="st1" points="101,24.3 125.9,74.8 181.7,82.9 141.3,122.2 150.9,177.7 101,151.5 51.1,177.7 60.7,122.2 20.3,82.9 
	76.1,74.8 "/>
<path class="st2" d="M102.5,211h-3c-5.5,0-10-4.5-10-10v-61c0-5.5,4.5-10,10-10h3c5.5,0,10,4.5,10,10v61
	C112.5,206.5,108,211,102.5,211z"/>
<g>
	<path class="st1" d="M91.9,192c6.1,0,12.1-12,18.2-12c0-4,0-8,0-12c-6.1,0-12.1,12-18.2,12C91.9,184,91.9,188,91.9,192z"/>
	<path class="st2" d="M91.9,192c6.1,0,12.1-12,18.2-12c0-4,0-8,0-12c-6.1,0-12.1,12-18.2,12C91.9,184,91.9,188,91.9,192z"/>
</g>
</svg>
