<?xml version="1.0" encoding="iso-8859-1"?>
<!-- Generator: Adobe Illustrator 20.0.0, SVG Export Plug-In . SVG Version: 6.00 Build 0)  -->
<svg version="1.1" id="Layer_1" xmlns="http://www.w3.org/2000/svg" xmlns:xlink="http://www.w3.org/1999/xlink" x="0px" y="0px"
	 viewBox="0 0 44 44" style="enable-background:new 0 0 44 44;" xml:space="preserve">
<g>
	<circle cx="22" cy="39" r="2"/>
	<circle cx="17" cy="5" r="1"/>
	<path d="M20,4c-0.553,0-1,0.448-1,1s0.447,1,1,1h4c0.553,0,1-0.448,1-1s-0.447-1-1-1H20z"/>
	<path d="M30,0H14c-2.757,0-5,2.243-5,5v4c0,0.552,0.447,1,1,1l20,0c0.552,0,1-0.448,1-1s-0.447-1-1-1L11,8V5c0-1.654,1.346-3,3-3
		h16c1.654,0,3,1.346,3,3v26c0,0.552,0.447,1,1,1s1-0.448,1-1V5C35,2.243,32.757,0,30,0z"/>
	<path d="M34,34H14c-0.553,0-1,0.448-1,1s0.447,1,1,1h19v3c0,1.654-1.346,3-3,3H14c-1.654,0-3-1.346-3-3V13c0-0.552-0.447-1-1-1
		s-1,0.448-1,1v26c0,2.757,2.243,5,5,5h16c2.757,0,5-2.243,5-5v-4C35,34.448,34.553,34,34,34z"/>
</g>
</svg>
