<?xml version="1.0" encoding="iso-8859-1"?>
<!-- Generator: Adobe Illustrator 21.0.0, SVG Export Plug-In . SVG Version: 6.00 Build 0)  -->
<svg version="1.1" id="Layer_1" xmlns="http://www.w3.org/2000/svg" xmlns:xlink="http://www.w3.org/1999/xlink" x="0px" y="0px"
	 viewBox="0 0 44 44" style="enable-background:new 0 0 44 44;" xml:space="preserve">
<g>
	<path d="M22,21c-2.206,0-4,1.794-4,4c0,0.552,0.448,1,1,1s1-0.448,1-1c0-1.103,0.897-2,2-2c0.552,0,1-0.448,1-1S22.552,21,22,21z"
		/>
	<path d="M22,14c-6.065,0-11,4.935-11,11s4.935,11,11,11s11-4.935,11-11S28.065,14,22,14z M22,34c-4.962,0-9-4.038-9-9s4.038-9,9-9
		s9,4.038,9,9S26.962,34,22,34z"/>
	<path d="M22,17c-4.411,0-8,3.589-8,8s3.589,8,8,8s8-3.589,8-8S26.411,17,22,17z M22,31c-3.309,0-6-2.691-6-6s2.691-6,6-6
		s6,2.691,6,6S25.309,31,22,31z"/>
	<circle cx="38" cy="16" r="2"/>
	<path d="M41,10h-7.146c-0.762,0-1.448-0.423-1.789-1.105l-1.342-2.684C30.042,4.847,28.67,4,27.146,4H16.854
		c-1.524,0-2.896,0.847-3.578,2.211l-1.342,2.684C11.594,9.576,10.908,10,10.146,10H8c0-0.552-0.448-1-1-1H5c-0.552,0-1,0.448-1,1H3
		c-1.654,0-3,1.346-3,3v24c0,1.654,1.346,3,3,3h38c1.654,0,3-1.346,3-3V13C44,11.346,42.654,10,41,10z M41,38H3
		c-0.551,0-1-0.449-1-1v-9h6c0.552,0,1-0.448,1-1s-0.448-1-1-1H2v-2h6c0.552,0,1-0.448,1-1s-0.448-1-1-1H2v-9c0-0.551,0.449-1,1-1
		h7.146c1.524,0,2.896-0.847,3.578-2.211l1.342-2.684C15.406,6.424,16.092,6,16.854,6h10.292c0.762,0,1.448,0.424,1.789,1.105
		l1.342,2.684C30.958,11.153,32.33,12,33.854,12H41c0.551,0,1,0.449,1,1v9h-6c-0.552,0-1,0.448-1,1s0.448,1,1,1h6v2h-6
		c-0.552,0-1,0.448-1,1s0.448,1,1,1h6v9C42,37.551,41.551,38,41,38z"/>
	<path d="M18,10h8c0.552,0,1-0.448,1-1s-0.448-1-1-1h-8c-0.552,0-1,0.448-1,1S17.448,10,18,10z"/>
</g>
</svg>
