<?xml version="1.0" encoding="iso-8859-1"?>
<!-- Generator: Adobe Illustrator 20.0.0, SVG Export Plug-In . SVG Version: 6.00 Build 0)  -->
<svg version="1.1" id="Layer_1" xmlns="http://www.w3.org/2000/svg" xmlns:xlink="http://www.w3.org/1999/xlink" x="0px" y="0px"
	 viewBox="0 0 44 44" style="enable-background:new 0 0 44 44;" xml:space="preserve">
<g>
	<path d="M33.5,16v-1c0-0.552-0.447-1-1-1v-1c0-1.654-1.346-3-3-3h-0.528c-0.943-1.229-1.026-3.259-1.088-5.076
		c-0.029-0.837-0.057-1.628-0.16-2.351C27.513,1.106,26.236,0,24.754,0H21.5h-3.254c-1.482,0-2.759,1.106-2.97,2.573
		c-0.104,0.723-0.131,1.514-0.16,2.351C15.054,6.741,14.972,8.771,14.028,10H13.5c-1.654,0-3,1.346-3,3v18c0,1.654,1.346,3,3,3
		h0.528c0.943,1.229,1.026,3.259,1.088,5.076c0.029,0.837,0.057,1.628,0.16,2.351C15.487,42.894,16.764,44,18.246,44H21.5h3.254
		c1.482,0,2.759-1.106,2.97-2.573c0.104-0.723,0.131-1.514,0.16-2.351c0.062-1.817,0.145-3.847,1.088-5.076H29.5
		c1.654,0,3-1.346,3-3v-1c0.553,0,1-0.448,1-1v-6c0-0.552-0.447-1-1-1v-5C33.053,17,33.5,16.552,33.5,16z M17.115,4.994
		c0.027-0.782,0.053-1.521,0.142-2.136C17.328,2.361,17.744,2,18.246,2H21.5h3.254c0.502,0,0.918,0.361,0.989,0.857
		c0.089,0.616,0.114,1.354,0.142,2.136c0.058,1.66,0.132,3.471,0.788,5.006H16.327C16.983,8.465,17.058,6.653,17.115,4.994z
		 M25.885,39.006c-0.027,0.782-0.053,1.521-0.142,2.136C25.672,41.639,25.256,42,24.754,42H21.5h-3.254
		c-0.502,0-0.918-0.361-0.989-0.857c-0.089-0.616-0.114-1.354-0.142-2.136c-0.058-1.66-0.132-3.471-0.788-5.006h10.346
		C26.017,35.535,25.942,37.347,25.885,39.006z M30.5,31c0,0.551-0.448,1-1,1h-16c-0.552,0-1-0.449-1-1V13c0-0.551,0.448-1,1-1h16
		c0.552,0,1,0.449,1,1V31z"/>
	<path d="M21.5,14c-0.553,0-1,0.448-1,1s0.447,1,1,1c3.309,0,6,2.691,6,6s-2.691,6-6,6s-6-2.691-6-6c0-0.552-0.447-1-1-1
		s-1,0.448-1,1c0,4.411,3.589,8,8,8s8-3.589,8-8S25.911,14,21.5,14z"/>
	<path d="M21.5,27c2.757,0,5-2.243,5-5s-2.243-5-5-5c-0.553,0-1,0.448-1,1s0.447,1,1,1c1.654,0,3,1.346,3,3s-1.346,3-3,3
		c-0.553,0-1,0.448-1,1S20.947,27,21.5,27z"/>
	<path d="M21.5,22c0,0.552,0.447,1,1,1s1-0.448,1-1c0-1.103-0.897-2-2-2c-0.553,0-1,0.448-1,1S20.947,22,21.5,22z"/>
</g>
</svg>
