<?xml version="1.0" encoding="utf-8"?>
<!-- Generator: Adobe Illustrator 21.1.0, SVG Export Plug-In . SVG Version: 6.00 Build 0)  -->
<svg version="1.1" id="Layer_1" xmlns="http://www.w3.org/2000/svg" xmlns:xlink="http://www.w3.org/1999/xlink" x="0px" y="0px"
	 viewBox="0 0 161.4 153.5" style="enable-background:new 0 0 161.4 153.5;" xml:space="preserve">
<style type="text/css">
	.st0{fill:#773D94;}
	.st1{fill:#FFFFFF;}
	.st2{fill:none;stroke:#FFFFFF;stroke-width:4;stroke-miterlimit:10;}
</style>
<path class="st0" d="M171.7,177.7h-182c-5.5,0-10-4.5-10-10v-182c0-5.5,4.5-10,10-10h182c5.5,0,10,4.5,10,10v182
	C181.7,173.2,177.2,177.7,171.7,177.7z"/>
<polygon class="st1" points="80.7,0 105.6,50.5 161.4,58.6 121,97.9 130.5,153.5 80.7,127.2 30.8,153.5 40.3,97.9 0,58.6 55.7,50.5 
	"/>
<path class="st2" d="M82.2,186.7h-3c-5.5,0-10-4.5-10-10v-61c0-5.5,4.5-10,10-10h3c5.5,0,10,4.5,10,10v61
	C92.2,182.2,87.7,186.7,82.2,186.7z"/>
<g>
	<path class="st1" d="M71.6,167.7c6.1,0,12.1-12,18.2-12c0-4,0-8,0-12c-6.1,0-12.1,12-18.2,12C71.6,159.7,71.6,163.7,71.6,167.7z"/>
	<path class="st2" d="M71.6,167.7c6.1,0,12.1-12,18.2-12c0-4,0-8,0-12c-6.1,0-12.1,12-18.2,12C71.6,159.7,71.6,163.7,71.6,167.7z"/>
</g>
</svg>
